<?xml version="1.0" encoding="UTF-8" standalone="no"?>
<!-- Created with Inkscape (http://www.inkscape.org/) -->

<svg
   xmlns:dc="http://purl.org/dc/elements/1.1/"
   xmlns:cc="http://creativecommons.org/ns#"
   xmlns:rdf="http://www.w3.org/1999/02/22-rdf-syntax-ns#"
   xmlns:svg="http://www.w3.org/2000/svg"
   xmlns="http://www.w3.org/2000/svg"
   xmlns:sodipodi="http://sodipodi.sourceforge.net/DTD/sodipodi-0.dtd"
   xmlns:inkscape="http://www.inkscape.org/namespaces/inkscape"
   width="433.65985"
   height="106.72065"
   id="svg2"
   version="1.1"
   inkscape:version="0.48.4 r9939"
   sodipodi:docname="gmat.svg">
  <defs
     id="defs4" />
  <sodipodi:namedview
     id="base"
     pagecolor="#ffffff"
     bordercolor="#666666"
     borderopacity="1.0"
     inkscape:pageopacity="0.0"
     inkscape:pageshadow="2"
     inkscape:zoom="0.70710678"
     inkscape:cx="393.3901"
     inkscape:cy="124.79704"
     inkscape:document-units="px"
     inkscape:current-layer="layer1"
     showgrid="false"
     showguides="true"
     inkscape:guide-bbox="true"
     fit-margin-top="0"
     fit-margin-left="0"
     fit-margin-right="0"
     fit-margin-bottom="0"
     inkscape:window-width="1680"
     inkscape:window-height="975"
     inkscape:window-x="-9"
     inkscape:window-y="-9"
     inkscape:window-maximized="1" />
  <metadata
     id="metadata7">
    <rdf:RDF>
      <cc:Work
         rdf:about="">
        <dc:format>image/svg+xml</dc:format>
        <dc:type
           rdf:resource="http://purl.org/dc/dcmitype/StillImage" />
        <dc:title></dc:title>
      </cc:Work>
    </rdf:RDF>
  </metadata>
  <g
     inkscape:label="Layer 1"
     inkscape:groupmode="layer"
     id="layer1"
     transform="translate(-175.3125,-305.43561)">
    <path
       style="fill:#000000;fill-opacity:1;stroke:#000000;stroke-width:1px;stroke-linecap:butt;stroke-linejoin:miter;stroke-opacity:1"
       d="m 231.8125,305.9375 c -27.68792,-0.21108 -55.47083,17.44129 -56,55.4375 9.82579,2.93396 19.97282,5.64131 30.40625,8.03125 -0.73399,-2.91975 -1.11501,-6.2154 -1.09375,-9.90625 0.11137,-19.33246 13.11122,-28.68004 26.6875,-28.8125 13.57628,-0.13246 24.03125,9.375 24.03125,9.375 l 16.8125,-19.4375 c 0,0 -12.78989,-14.47363 -40.84375,-14.6875 z m -2.46875,44.375 0.15625,20.34375 19.8125,0.15625 0.3125,6.53125 c 8.68585,1.21163 17.5178,2.24494 26.46875,3.03125 l 0.25,-29.875 -47,-0.1875 z m -39.5,45.1875 c 9.9741,9.83697 24.66754,16.14972 42.15625,16.15625 14.34096,0.005 24.50168,-3.55666 31.4375,-7.59375 -25.65304,-1.22127 -50.28816,-4.25448 -73.59375,-8.5625 z"
       id="path3008"
       inkscape:connector-curvature="0" />
    <path
       style="fill:#000000;fill-opacity:1;stroke:#000000;stroke-width:1px;stroke-linecap:butt;stroke-linejoin:miter;stroke-opacity:1"
       d="m 287.3125,307.34375 0,73.875 c 9.13576,0.60562 18.39737,0.96902 27.75,1.09375 l 0,-31.75 20.1875,30.875 12.9375,0 20.53125,-30.90625 0,29.75 c 9.09679,-0.81985 18.24402,-1.88688 27.4375,-3.21875 l 0,-69.71875 -29.5,0 -24.40625,39.53125 -24.96875,-39.53125 -29.96875,0 z M 396.15625,393.125 c -9.20827,2.00946 -18.35127,3.73462 -27.4375,5.1875 l 0,11.5625 27.4375,0 0,-16.75 z m -81.09375,10.84375 c -9.35604,0.482 -18.6061,0.70821 -27.75,0.6875 l 0,5.21875 27.75,0 0,-5.90625 z"
       id="path3030"
       inkscape:connector-curvature="0" />
    <path
       style="fill:#000000;fill-opacity:1;stroke:#000000;stroke-width:1px;stroke-linecap:butt;stroke-linejoin:miter;stroke-opacity:1"
       d="m 443.625,307.34375 -28.40625,66.59375 c 10.29083,-1.89462 20.62654,-4.12818 30.96875,-6.71875 L 456.875,339.75 l 8.46875,22.28125 c 8.47328,-2.48741 16.9433,-5.22381 25.40625,-8.21875 l -19.5,-46.46875 -27.625,0 z m 50.125,53.625 c -28.77734,12.8776 -57.39774,22.49381 -85.53125,29.375 l -8.34375,19.53125 29.75,0 6.875,-18 40.25,0 c 0,0 6.75,18 7.625,18 l 29.875,0 -20.5,-48.90625 z"
       id="path3032"
       inkscape:connector-curvature="0" />
    <path
       style="fill:#000000;fill-opacity:1;stroke:none"
       d="m 496.71875,307.34375 0,24.84375 30.65625,0 0,6.96875 c 19.95392,-8.93826 39.7469,-19.40206 59.21875,-31.5625 l 0,-0.0312 0,-0.21875 -89.875,0 z m 89.875,0.25 c -19.71699,14.0246 -39.48919,26.26974 -59.25,36.875 l -0.125,65.40625 27.84375,0 0,-77.6875 31.53125,0 0,-24.59375 z"
       id="path3038"
       inkscape:connector-curvature="0" />
    <g
       style="font-size:40px;font-style:normal;font-variant:normal;font-weight:normal;font-stretch:normal;line-height:125%;letter-spacing:0px;word-spacing:0px;fill:#000000;fill-opacity:1;stroke:none;font-family:DejaVu Sans;-inkscape-font-specification:DejaVu Sans"
       id="text3040"
       transform="matrix(0.40599463,0,0,0.35798874,329.15456,149.70192)">
      <path
         d="m 680.46094,479.86218 -8.63282,0 -6.60156,-10.23437 0,10.23437 -6.93359,0 0,-26.66015 10.78125,0 c 3.15102,2e-5 5.48175,0.94403 6.99219,2.83203 1.22393,1.52346 1.83591,3.31382 1.83593,5.37109 -2e-5,2.35679 -0.70314,4.2383 -2.10937,5.64453 -0.89846,0.89845 -2.13544,1.52345 -3.71094,1.875 z m -9.76563,-18.0664 c -10e-6,-0.95051 -0.34506,-1.75129 -1.03515,-2.40235 -0.65106,-0.61196 -1.69923,-0.91794 -3.14454,-0.91797 l -1.28906,0 0,6.66016 1.28906,0 c 1.45833,10e-6 2.5065,-0.30597 3.14454,-0.91797 0.69009,-0.66404 1.03514,-1.47134 1.03515,-2.42187 z"
         style="font-weight:bold;font-family:Aharoni;-inkscape-font-specification:Aharoni Bold"
         id="path3045"
         inkscape:connector-curvature="0" />
    </g>
    <path
       sodipodi:type="arc"
       style="fill:none;stroke:#000000;stroke-width:2.04431844;stroke-miterlimit:4;stroke-opacity:1;stroke-dasharray:none"
       id="path3047"
       sodipodi:cx="633.5"
       sodipodi:cy="482.36218"
       sodipodi:rx="8.875"
       sodipodi:ry="8.875"
       d="m 642.375,482.36218 c 0,4.90153 -3.97347,8.875 -8.875,8.875 -4.90153,0 -8.875,-3.97347 -8.875,-8.875 0,-4.90152 3.97347,-8.875 8.875,-8.875 4.90153,0 8.875,3.97348 8.875,8.875 z"
       transform="matrix(0.880489,0,0,0.880489,42.460222,-107.72741)" />
  </g>
</svg>
